<?xml version="1.0" encoding="UTF-8"?>
<svg width="118px" height="72px" viewBox="0 0 118 72" version="1.1" xmlns="http://www.w3.org/2000/svg" xmlns:xlink="http://www.w3.org/1999/xlink">
    <!-- Generator: Sketch 50.2 (55047) - http://www.bohemiancoding.com/sketch -->
    <title>Group</title>
    <desc>Created with Sketch.</desc>
    <defs></defs>
    <g id="Page-1" stroke="none" stroke-width="1" fill="none" fill-rule="evenodd">
        <g id="Desktop-HD" transform="translate(-81.000000, -109.000000)" fill="#FFFFFF">
            <g id="Group" transform="translate(81.000000, 112.000000)">
                <polygon id="T" points="92.2381974 19.1184408 83 19.1184408 83 6 118 6 118 19.1184408 108.761803 19.1184408 108.761803 56 92.2381974 56"></polygon>
                <polygon id="N" points="0 7 12.9401408 7 26.5457746 26.2653673 26.5457746 7 42 7 42 57 28.9859155 57 15.4542254 37.8095952 15.4542254 57 0 57"></polygon>
                <path d="M30,33 C30,28.4742631 30.851182,24.2000201 32.5535714,20.1771429 C34.2559609,16.1542656 36.5773662,12.6500149 39.5178571,9.66428571 C42.458348,6.6785565 45.909504,4.32143721 49.8714286,2.59285714 C53.8333531,0.864277071 58.0428349,0 62.5,0 C66.9571651,0 71.1666469,0.864277071 75.1285714,2.59285714 C79.090496,4.32143721 82.541652,6.6785565 85.4821429,9.66428571 C88.4226338,12.6500149 90.7440391,16.1542656 92.4464286,20.1771429 C94.148818,24.2000201 95,28.4742631 95,33 C95,37.5257369 94.148818,41.7999799 92.4464286,45.8228571 C90.7440391,49.8457344 88.4226338,53.3499851 85.4821429,56.3357143 C82.541652,59.3214435 79.090496,61.6785628 75.1285714,63.4071429 C71.1666469,65.1357229 66.9571651,66 62.5,66 C58.0428349,66 53.8333531,65.1357229 49.8714286,63.4071429 C45.909504,61.6785628 42.458348,59.3214435 39.5178571,56.3357143 C36.5773662,53.3499851 34.2559609,49.8457344 32.5535714,45.8228571 C30.851182,41.7999799 30,37.5257369 30,33 Z M49.5,33 C49.5,34.8228663 49.8404728,36.5357063 50.5214286,38.1385714 C51.2023844,39.7414366 52.1309465,41.139994 53.3071429,42.3342857 C54.4833392,43.5285774 55.8607064,44.4714251 57.4392857,45.1628571 C59.017865,45.8542892 60.7047529,46.2 62.5,46.2 C64.2952471,46.2 65.982135,45.8542892 67.5607143,45.1628571 C69.1392936,44.4714251 70.5166608,43.5285774 71.6928571,42.3342857 C72.8690535,41.139994 73.7976156,39.7414366 74.4785714,38.1385714 C75.1595272,36.5357063 75.5,34.8228663 75.5,33 C75.5,31.1771337 75.1595272,29.4642937 74.4785714,27.8614286 C73.7976156,26.2585634 72.8690535,24.860006 71.6928571,23.6657143 C70.5166608,22.4714226 69.1392936,21.5285749 67.5607143,20.8371429 C65.982135,20.1457108 64.2952471,19.8 62.5,19.8 C60.7047529,19.8 59.017865,20.1457108 57.4392857,20.8371429 C55.8607064,21.5285749 54.4833392,22.4714226 53.3071429,23.6657143 C52.1309465,24.860006 51.2023844,26.2585634 50.5214286,27.8614286 C49.8404728,29.4642937 49.5,31.1771337 49.5,33 Z" id="O" stroke="#4E2FCD" stroke-width="6"></path>
            </g>
        </g>
    </g>
</svg>